<svg width="97" height="25" viewBox="0 0 97 25" fill="none" xmlns="http://www.w3.org/2000/svg">
<g clip-path="url(#clip0)">
<path d="M0.0664062 9.15527e-05H2.74283V9.55671C4.32885 8.17606 6.21227 7.48576 8.39306 7.48576C10.8117 7.48576 12.8538 8.33386 14.519 10.0301C16.224 11.7262 17.0765 13.7972 17.0765 16.2428C17.0765 18.6885 16.224 20.7594 14.519 22.4556C12.8538 24.1518 10.8117 24.9999 8.39306 24.9999C6.21227 24.9999 4.32885 24.3096 2.74283 22.929V25H0.0664062V9.15527e-05ZM2.74283 18.3138C3.17898 19.4971 3.89269 20.4636 4.88396 21.2131C5.91489 21.9625 7.08457 22.3373 8.39306 22.3373C10.0583 22.3373 11.466 21.7456 12.6158 20.5622C13.8054 19.3394 14.4001 17.8996 14.4001 16.2428C14.4001 14.5861 13.8054 13.166 12.6158 11.9826C11.466 10.7598 10.0583 10.1484 8.39306 10.1484C7.08457 10.1484 5.91489 10.5231 4.88396 11.2726C3.89269 12.0221 3.17898 12.9885 2.74283 14.1719C2.30667 15.3553 2.30667 17.1304 2.74283 18.3138Z" fill="#0F3029"/>
<path d="M72.1987 0V24.9998L69.5224 25V22.9289C67.9362 24.3095 66.053 24.9998 63.8717 24.9998C61.4533 24.9998 59.3916 24.1518 57.6864 22.4556C56.0213 20.7594 55.1885 18.6885 55.1885 16.2428C55.1885 13.7971 56.0213 11.7262 57.6864 10.03C59.3916 8.33385 61.4533 7.48575 63.8717 7.48575C66.053 7.48575 67.9362 8.17605 69.5224 9.5567V0H72.1987ZM69.5224 14.1719C69.0861 12.9885 68.3524 12.022 67.3215 11.2726C66.3304 10.5231 65.1805 10.1483 63.8717 10.1483C62.2067 10.1483 60.7793 10.7598 59.5897 11.9826C58.4397 13.166 57.8648 14.586 57.8648 16.2428C57.8648 17.8995 58.4397 19.3393 59.5897 20.5621C60.7793 21.7455 62.2067 22.3372 63.8717 22.3372C65.1805 22.3372 66.3304 21.9625 67.3215 21.213C68.3524 20.4635 69.0861 19.4971 69.5224 18.3137C69.9581 17.1303 69.9581 15.3552 69.5224 14.1719Z" fill="#0F3029"/>
<path d="M77.0758 22.4556C75.4102 20.7594 74.5774 18.6885 74.5774 16.2428C74.5774 13.7971 75.4102 11.7262 77.0758 10.03C78.7806 8.33385 80.8422 7.48575 83.2612 7.48575C85.6796 7.48575 87.7217 8.33385 89.3872 10.03C91.092 11.7262 91.9444 13.7971 91.9444 16.2428C91.9444 18.6885 91.092 20.7594 89.3872 22.4556C87.7217 24.1518 85.6796 24.9998 83.2612 24.9998C80.8422 24.9998 78.7806 24.1518 77.0758 22.4556ZM78.9791 11.9826C77.8292 13.166 77.2542 14.586 77.2542 16.2428C77.2542 17.8995 77.8292 19.3393 78.9791 20.5621C80.1682 21.7455 81.5956 22.3372 83.2612 22.3372C84.9262 22.3372 86.334 21.7455 87.4839 20.5621C88.6736 19.3393 89.2681 17.8995 89.2681 16.2428C89.2681 14.586 88.6736 13.166 87.4839 11.9826C86.334 10.7598 84.9262 10.1483 83.2612 10.1483C81.5956 10.1483 80.1682 10.7598 78.9791 11.9826Z" fill="#0F3029"/>
<path d="M94.3237 0.26709H97V25.0271H94.3237V0.26709Z" fill="#0F3029"/>
<path d="M77.802 4.27739L82.6028 1.4446C83.0073 1.20576 83.5109 1.20576 83.9155 1.4446L88.7163 4.27739V6.8417L83.916 4.00632C83.5109 3.76709 83.0073 3.76709 82.6022 4.00632L77.802 6.8417V4.27739Z" fill="#0F3029"/>
<path d="M45.0631 7.69461C47.4024 7.69461 49.2859 8.52296 50.7134 10.1797C52.1408 11.797 52.8545 13.8482 52.8545 16.3333V25.5605L50.178 25V16.3333C50.178 14.6372 49.722 13.2171 48.8101 12.0732C47.9378 10.9292 46.6888 10.3572 45.0631 10.3572C43.4374 10.3572 42.1884 10.9292 41.3161 12.0732C40.4041 13.2171 39.9482 14.6372 39.9482 16.3333V25H37.2717V7.81306H39.9481V9.61746C41.3003 8.33556 43.0053 7.69461 45.0631 7.69461Z" fill="#0F3029"/>
<path d="M32.5363 20.4733V16.7483C31.308 15.6052 29.7032 15.3536 27.7221 15.3536C26.2561 15.3536 25.0079 15.7281 23.9778 16.4771C22.9872 17.1866 22.4919 18.0688 22.4919 19.0543C22.4919 20.0397 22.9278 20.5475 23.7995 21.2176C24.7108 21.8483 25.8797 22.1636 27.3061 22.1636C28.1778 22.1636 29.094 22.0457 30.172 21.6828C31.1417 21.3563 32.0212 21.0252 32.5363 20.4733ZM32.2391 13.4371C31.6051 11.3874 30.2368 9.82764 27.9783 9.82764C25.7595 9.82764 23.9764 10.8204 22.6292 11.8058L21.5 8.99989C23.6 7.85674 25.7595 7.28519 27.9783 7.28519C30.3557 7.28519 32.1585 7.99469 33.3868 9.41374C34.6548 10.7934 35.2108 12.9003 35.2108 15.3048V24.9191H32.5363V23.5C30.7137 24.4461 28.9702 24.9191 27.3061 24.9191C25.1269 24.9191 23.324 24.3672 21.8976 23.2635C20.5108 22.1203 19.8174 20.8675 19.8174 19.0543C19.8174 17.241 20.5702 15.7084 22.0759 14.5259C23.6211 13.3039 25.5032 12.6929 27.7221 12.6929C29.1881 12.6929 30.6939 12.7276 32.2391 13.4371Z" fill="#0F3029"/>
</g>
<defs>
<clipPath id="clip0">
<rect width="97" height="25" fill="white"/>
</clipPath>
</defs>
</svg>
