<svg viewBox="0 0 95 25" fill="none" xmlns="http://www.w3.org/2000/svg">
<path d="M1 0.666667V10.6667M1 24V20M1 10.6667C4.76429 8.44444 14.95 6.01907 14.95 15.3333C14.95 25.3333 4.98571 23.3333 1 20M1 10.6667V20M21.5929 9.33333C25.1357 7.55556 32.2214 6.13333 32.2214 14.6667M32.2214 14.6667C32.2214 17.9972 32.2214 20.0821 32.2214 21.3333M32.2214 14.6667C30.45 13.7778 26.11 12.2667 22.9214 13.3333C18.9357 14.6667 18.9357 20 22.2571 22C24.9143 23.6 30.0071 22.2222 32.2214 21.3333M32.2214 21.3333C32.2214 23.288 32.2214 23.2086 32.2214 22.6667V21.3333ZM37.5357 23.3333V12M37.5357 7.33333V12M37.5357 12C40.1929 6.66667 50.1571 8.509 50.1571 13.3333C50.1571 19.3333 50.1571 19.3333 50.1571 23.3333M69.4214 0V12M69.4214 24V21.3333M69.4214 12C66.7643 7.33333 56.1201 6.83925 55.4714 14C54.4916 24.8163 62.7786 23.3333 69.4214 21.3333M69.4214 12V21.3333M76.0643 5.33333L81.3786 1.33333L86.6929 5.33333M94 0.666667V24M81.3786 8.66667C83.8143 8.66667 88.6857 10.1333 88.6857 16C88.6857 21.8667 83.8143 23.3333 81.3786 23.3333C78.7214 23.3333 73.4071 21.8667 73.4071 16C73.4071 8.66667 80.7143 8.63357 81.3786 8.66667Z" stroke="black" stroke-width="2"/>
</svg>
