<svg width="97" height="25" viewBox="0 0 97 25" fill="none" xmlns="http://www.w3.org/2000/svg">
<g clip-path="url(#clip0)">
<path d="M0.0664062 0H2.74283V9.55662C4.32885 8.17597 6.21227 7.48566 8.39306 7.48566C10.8117 7.48566 12.8538 8.33377 14.519 10.03C16.224 11.7261 17.0765 13.7971 17.0765 16.2427C17.0765 18.6884 16.224 20.7593 14.519 22.4555C12.8538 24.1517 10.8117 24.9998 8.39306 24.9998C6.21227 24.9998 4.32885 24.3095 2.74283 22.9289V24.9999H0.0664062V0ZM2.74283 18.3137C3.17898 19.497 3.89269 20.4635 4.88396 21.213C5.91489 21.9624 7.08457 22.3372 8.39306 22.3372C10.0583 22.3372 11.466 21.7455 12.6158 20.5621C13.8054 19.3393 14.4001 17.8995 14.4001 16.2427C14.4001 14.586 13.8054 13.1659 12.6158 11.9825C11.466 10.7597 10.0583 10.1483 8.39306 10.1483C7.08457 10.1483 5.91489 10.523 4.88396 11.2725C3.89269 12.022 3.17898 12.9884 2.74283 14.1718C2.30667 15.3552 2.30667 17.1303 2.74283 18.3137Z" fill="#FFBCA2"/>
<path d="M72.1987 0V24.9998L69.5224 25V22.9289C67.9362 24.3095 66.053 24.9998 63.8717 24.9998C61.4533 24.9998 59.3916 24.1518 57.6864 22.4556C56.0213 20.7594 55.1885 18.6885 55.1885 16.2428C55.1885 13.7971 56.0213 11.7262 57.6864 10.03C59.3916 8.33385 61.4533 7.48575 63.8717 7.48575C66.053 7.48575 67.9362 8.17605 69.5224 9.5567V0H72.1987ZM69.5224 14.1719C69.0861 12.9885 68.3524 12.022 67.3215 11.2726C66.3304 10.5231 65.1805 10.1483 63.8717 10.1483C62.2067 10.1483 60.7793 10.7598 59.5897 11.9826C58.4397 13.166 57.8648 14.586 57.8648 16.2428C57.8648 17.8995 58.4397 19.3393 59.5897 20.5621C60.7793 21.7455 62.2067 22.3372 63.8717 22.3372C65.1805 22.3372 66.3304 21.9625 67.3215 21.213C68.3524 20.4635 69.0861 19.4971 69.5224 18.3137C69.9581 17.1303 69.9581 15.3552 69.5224 14.1719Z" fill="#FFBCA2"/>
<path d="M77.0758 22.4557C75.4102 20.7595 74.5774 18.6886 74.5774 16.2429C74.5774 13.7972 75.4102 11.7263 77.0758 10.0301C78.7806 8.33394 80.8422 7.48584 83.2612 7.48584C85.6796 7.48584 87.7217 8.33394 89.3872 10.0301C91.092 11.7263 91.9444 13.7972 91.9444 16.2429C91.9444 18.6886 91.092 20.7595 89.3872 22.4557C87.7217 24.1519 85.6796 24.9999 83.2612 24.9999C80.8422 24.9999 78.7806 24.1519 77.0758 22.4557ZM78.9791 11.9827C77.8292 13.1661 77.2542 14.5861 77.2542 16.2429C77.2542 17.8996 77.8292 19.3394 78.9791 20.5622C80.1682 21.7456 81.5956 22.3373 83.2612 22.3373C84.9262 22.3373 86.334 21.7456 87.4839 20.5622C88.6736 19.3394 89.2681 17.8996 89.2681 16.2429C89.2681 14.5861 88.6736 13.1661 87.4839 11.9827C86.334 10.7599 84.9262 10.1484 83.2612 10.1484C81.5956 10.1484 80.1682 10.7599 78.9791 11.9827Z" fill="#FFBCA2"/>
<path d="M94.3237 0.26709H97V25.0271H94.3237V0.26709Z" fill="#FFBCA2"/>
<path d="M77.802 4.27754L82.6028 1.44476C83.0073 1.20591 83.5109 1.20591 83.9155 1.44476L88.7163 4.27754V6.84185L83.916 4.00648C83.5109 3.76724 83.0073 3.76724 82.6022 4.00648L77.802 6.84185V4.27754Z" fill="#FFBCA2"/>
<path d="M45.0631 7.69482C47.4024 7.69482 49.2859 8.52317 50.7134 10.1799C52.1408 11.7972 52.8545 13.8484 52.8545 16.3335V25.5608L50.178 25.0002V16.3335C50.178 14.6374 49.722 13.2173 48.8101 12.0734C47.9378 10.9294 46.6888 10.3574 45.0631 10.3574C43.4374 10.3574 42.1884 10.9294 41.3161 12.0734C40.4041 13.2173 39.9482 14.6374 39.9482 16.3335V25.0002H37.2717V7.81327H39.9481V9.61767C41.3003 8.33577 43.0053 7.69482 45.0631 7.69482Z" fill="#FFBCA2"/>
<path d="M32.5363 20.4733V16.7483C31.308 15.6052 29.7032 15.3536 27.7221 15.3536C26.2561 15.3536 25.0079 15.7281 23.9778 16.4771C22.9872 17.1866 22.4919 18.0688 22.4919 19.0543C22.4919 20.0397 22.9278 20.5475 23.7995 21.2176C24.7108 21.8483 25.8797 22.1636 27.3061 22.1636C28.1778 22.1636 29.094 22.0457 30.172 21.6828C31.1417 21.3563 32.0212 21.0252 32.5363 20.4733ZM32.2391 13.4371C31.6051 11.3874 30.2368 9.82761 27.9783 9.82761C25.7595 9.82761 23.9764 10.8204 22.6292 11.8058L21.5 8.99986C23.6 7.85671 25.7595 7.28516 27.9783 7.28516C30.3557 7.28516 32.1585 7.99466 33.3868 9.41371C34.6548 10.7934 35.2108 12.9003 35.2108 15.3048V24.919H32.5363V23.5C30.7137 24.446 28.9702 24.919 27.3061 24.919C25.1269 24.919 23.324 24.3672 21.8976 23.2635C20.5108 22.1203 19.8174 20.8675 19.8174 19.0543C19.8174 17.241 20.5702 15.7084 22.0759 14.5259C23.6211 13.3039 25.5032 12.6929 27.7221 12.6929C29.1881 12.6929 30.6939 12.7276 32.2391 13.4371Z" fill="#FFBCA2"/>
</g>
<defs>
<clipPath id="clip0">
<rect width="97" height="25" fill="white"/>
</clipPath>
</defs>
</svg>
