<svg  viewBox="0 0 93 25" fill="none" xmlns="http://www.w3.org/2000/svg">
<g clip-path="url(#clip0)">
<path d="M0.0636597 0.257385H2.62971V9.21006C4.15033 7.87949 5.95609 7.21423 8.04695 7.21423C10.3659 7.21423 12.3237 8.03157 13.9203 9.66625C15.555 11.3009 16.3723 13.2967 16.3723 15.6537C16.3723 18.0107 15.555 20.0064 13.9203 21.6411C12.3237 23.2758 10.3659 24.0931 8.04695 24.0931C5.95609 24.0931 4.15033 23.4278 2.62971 22.0973V23.6369H0.0636597V0.257385ZM2.62971 17.6495C3.04788 18.7899 3.73216 19.7213 4.68255 20.4436C5.67097 21.1659 6.79241 21.5271 8.04695 21.5271C9.64356 21.5271 10.9931 20.9568 12.0956 19.8163C13.2361 18.6379 13.8063 17.2503 13.8063 15.6537C13.8063 14.057 13.2361 12.6885 12.0956 11.548C10.9931 10.3695 9.64356 9.78026 8.04695 9.78026C6.79241 9.78026 5.67097 10.1414 4.68255 10.8637C3.73216 11.586 3.04788 12.5174 2.62971 13.6579C2.21154 14.7983 2.21154 16.509 2.62971 17.6495Z" fill="#0F3029"/>
<path d="M69.2214 0.257385V23.6369H66.6555V22.0973C65.1347 23.4278 63.3292 24.0931 61.2379 24.0931C58.9191 24.0931 56.9425 23.2758 55.3075 21.6411C53.7111 20.0064 52.9127 18.0107 52.9127 15.6537C52.9127 13.2967 53.7111 11.3009 55.3075 9.66625C56.9425 8.03157 58.9191 7.21423 61.2379 7.21423C63.3292 7.21423 65.1347 7.87949 66.6555 9.21006V0.257385H69.2214ZM66.6555 13.6579C66.2372 12.5174 65.5337 11.586 64.5454 10.8637C63.5951 10.1414 62.4926 9.78026 61.2379 9.78026C59.6414 9.78026 58.2729 10.3695 57.1324 11.548C56.0299 12.6885 55.4786 14.057 55.4786 15.6537C55.4786 17.2503 56.0299 18.6379 57.1324 19.8163C58.2729 20.9568 59.6414 21.5271 61.2379 21.5271C62.4926 21.5271 63.5951 21.1659 64.5454 20.4436C65.5337 19.7213 66.2372 18.7899 66.6555 17.6495C67.0733 16.509 67.0733 14.7983 66.6555 13.6579Z" fill="#0F3029"/>
<path d="M73.8974 21.6412C72.3005 20.0065 71.5021 18.0107 71.5021 15.6537C71.5021 13.2968 72.3005 11.3009 73.8974 9.66628C75.5319 8.0316 77.5085 7.21426 79.8278 7.21426C82.1465 7.21426 84.1043 8.0316 85.7012 9.66628C87.3357 11.3009 88.1529 13.2968 88.1529 15.6537C88.1529 18.0107 87.3357 20.0065 85.7012 21.6412C84.1043 23.2758 82.1465 24.0931 79.8278 24.0931C77.5085 24.0931 75.5319 23.2758 73.8974 21.6412ZM75.7223 11.548C74.6197 12.6885 74.0685 14.057 74.0685 15.6537C74.0685 17.2504 74.6197 18.6379 75.7223 19.8164C76.8623 20.9569 78.2308 21.5271 79.8278 21.5271C81.4242 21.5271 82.7739 20.9569 83.8764 19.8164C85.017 18.6379 85.587 17.2504 85.587 15.6537C85.587 14.057 85.017 12.6885 83.8764 11.548C82.7739 10.3696 81.4242 9.78029 79.8278 9.78029C78.2308 9.78029 76.8623 10.3696 75.7223 11.548Z" fill="#0F3029"/>
<path d="M90.4341 0.257385H93V23.6369H90.4341V0.257385Z" fill="#0F3029"/>
<path d="M74.5937 4.12225L79.1965 1.39221C79.5844 1.16203 80.0672 1.16203 80.4551 1.39221L85.0579 4.12225V6.59355L80.4556 3.86102C80.0672 3.63046 79.5844 3.63046 79.196 3.86102L74.5937 6.59355V4.12225Z" fill="#0F3029"/>
<path d="M43.2048 7.41553C45.4477 7.41553 47.2534 8.21383 48.6221 9.81049C49.9906 11.3691 50.6749 13.3459 50.6749 15.7409V23.5531H48.1088V15.7409C48.1088 14.1063 47.6716 12.7377 46.7973 11.6353C45.9609 10.5328 44.7634 9.98156 43.2048 9.98156C41.6462 9.98156 40.4487 10.5328 39.6123 11.6353C38.738 12.7377 38.3008 14.1063 38.3008 15.7409V23.5531L35.7347 23.5532V7.52968H38.3008V9.26864C39.5972 8.03323 41.2319 7.41553 43.2048 7.41553Z" fill="#0F3029"/>
<path d="M31.1944 19.5028V15.9129C30.0167 14.8112 28.4782 14.5688 26.5788 14.5688C25.1732 14.5688 23.9765 14.9297 22.9888 15.6515C22.0391 16.3353 21.5642 17.1855 21.5642 18.1352C21.5642 19.0849 21.9821 19.5743 22.8179 20.2201C23.6916 20.8279 24.8123 21.1318 26.1799 21.1318C27.0156 21.1318 27.894 21.0181 28.9276 20.6684C29.8573 20.3538 30.7006 20.0347 31.1944 19.5028ZM30.9095 12.7218C30.3017 10.7464 28.9151 9.45024 26.7497 9.45024C24.6224 9.45024 22.9128 9.92511 21.6212 10.8748L20.5385 8.65251C22.552 7.55082 24.6224 7 26.7497 7C29.0291 7 30.7575 7.68377 31.9352 9.05135C33.1508 10.381 33.7587 12.2044 33.7587 14.5218V23.3542H31.1944V22.3285C29.4469 23.2402 27.7754 23.696 26.1799 23.696C24.0905 23.696 22.362 23.1642 20.9944 22.1005C19.6648 20.9989 19 19.8827 19 18.1352C19 16.3877 19.7218 14.9107 21.1654 13.7711C22.6469 12.5934 24.4514 12.0046 26.5788 12.0046C27.9843 12.0046 29.428 12.038 30.9095 12.7218Z" fill="#0F3029"/>
</g>
<defs>
<clipPath id="clip0">
<rect width="93" height="24.0933" fill="white"/>
</clipPath>
</defs>
</svg>
