<svg width="95" height="25" viewBox="0 0 95 25" fill="none" xmlns="http://www.w3.org/2000/svg"><path d="M1 .667v10M1 24v-4m0-9.333c3.764-2.223 13.95-4.648 13.95 4.666 0 10-9.964 8-13.95 4.667m0-9.333V20M21.593 9.333c3.543-1.777 10.628-3.2 10.628 5.334m0 0v6.666m0-6.666c-1.771-.89-6.111-2.4-9.3-1.334C18.936 14.667 18.936 20 22.257 22c2.657 1.6 7.75.222 9.964-.667m0 0v1.334-1.334zm5.315 2V12m0-4.667V12m0 0c2.657-5.333 12.621-3.491 12.621 1.333v10M69.421 0v12m0 12v-2.667m0-9.333c-2.657-4.667-13.3-5.16-13.95 2-.98 10.816 7.308 9.333 13.95 7.333m0-9.333v9.333m6.643-16l5.315-4 5.314 4M94 .667V24M81.379 8.667c2.435 0 7.307 1.466 7.307 7.333s-4.872 7.333-7.307 7.333c-2.658 0-7.972-1.466-7.972-7.333 0-7.333 7.307-7.366 7.972-7.333z" stroke="#000" stroke-width="2"/></svg>