<svg viewBox="0 0 93 25" fill="none" xmlns="http://www.w3.org/2000/svg"><g clip-path="url(#clip0)" fill="#0F3029"><path d="M.064.257H2.63V9.21c1.52-1.33 3.326-1.996 5.417-1.996 2.319 0 4.277.818 5.873 2.452 1.635 1.635 2.452 3.63 2.452 5.988 0 2.357-.817 4.352-2.452 5.987-1.596 1.635-3.554 2.452-5.873 2.452-2.09 0-3.897-.665-5.417-1.996v1.54H.064V.257zM2.63 17.65a6.05 6.05 0 002.053 2.794c.988.722 2.11 1.083 3.364 1.083 1.597 0 2.946-.57 4.049-1.71 1.14-1.18 1.71-2.567 1.71-4.163 0-1.597-.57-2.966-1.71-4.106C10.993 10.37 9.644 9.78 8.047 9.78c-1.255 0-2.376.361-3.364 1.084a6.05 6.05 0 00-2.053 2.794c-.418 1.14-.418 2.851 0 3.992zM69.221.257v23.38h-2.566v-1.54c-1.52 1.33-3.326 1.996-5.417 1.996-2.319 0-4.295-.817-5.93-2.452-1.597-1.635-2.395-3.63-2.395-5.987s.798-4.353 2.395-5.988c1.635-1.634 3.611-2.452 5.93-2.452 2.091 0 3.897.665 5.418 1.996V.257h2.565zm-2.566 13.4a5.914 5.914 0 00-2.11-2.793c-.95-.723-2.052-1.084-3.307-1.084-1.597 0-2.965.59-4.106 1.768-1.102 1.14-1.653 2.509-1.653 4.106 0 1.596.55 2.984 1.653 4.162 1.14 1.14 2.51 1.711 4.106 1.711 1.255 0 2.357-.361 3.307-1.083a5.914 5.914 0 002.11-2.794c.418-1.141.418-2.852 0-3.992zm7.242 7.984c-1.597-1.634-2.395-3.63-2.395-5.987s.799-4.353 2.395-5.988c1.635-1.634 3.611-2.452 5.93-2.452 2.32 0 4.277.818 5.874 2.452 1.635 1.635 2.452 3.63 2.452 5.988 0 2.357-.817 4.352-2.452 5.987-1.597 1.635-3.554 2.452-5.873 2.452-2.32 0-4.296-.817-5.93-2.452zm1.825-10.093c-1.102 1.14-1.653 2.509-1.653 4.106 0 1.596.55 2.984 1.653 4.162 1.14 1.14 2.509 1.711 4.106 1.711 1.596 0 2.946-.57 4.048-1.71 1.141-1.18 1.711-2.567 1.711-4.163 0-1.597-.57-2.966-1.71-4.106-1.103-1.178-2.453-1.768-4.05-1.768-1.596 0-2.965.59-4.105 1.768zM90.434.257H93v23.38h-2.566V.257zm-15.84 3.865l4.603-2.73c.387-.23.87-.23 1.258 0l4.603 2.73v2.472L80.456 3.86a1.233 1.233 0 00-1.26 0l-4.602 2.733V4.122zM43.205 7.416c2.243 0 4.048.798 5.417 2.394 1.369 1.56 2.053 3.536 2.053 5.93v7.813h-2.566v-7.812c0-1.635-.437-3.003-1.312-4.106-.836-1.102-2.034-1.653-3.592-1.653-1.559 0-2.756.55-3.593 1.653-.874 1.103-1.311 2.471-1.311 4.106v7.812h-2.566V7.53H38.3v1.739c1.296-1.236 2.93-1.853 4.904-1.853zM31.194 19.503v-3.59c-1.177-1.102-2.716-1.344-4.615-1.344-1.406 0-2.602.36-3.59 1.082-.95.684-1.425 1.535-1.425 2.484 0 .95.418 1.44 1.254 2.085.874.608 1.994.912 3.362.912.836 0 1.714-.114 2.748-.464.93-.314 1.773-.633 2.266-1.165zm-.284-6.781c-.608-1.976-1.995-3.272-4.16-3.272-2.128 0-3.837.475-5.129 1.425L20.54 8.653C22.551 7.55 24.621 7 26.748 7c2.28 0 4.009.684 5.186 2.051 1.216 1.33 1.824 3.153 1.824 5.47v8.833h-2.565v-1.026c-1.747.912-3.419 1.368-5.014 1.368-2.09 0-3.818-.532-5.186-1.596C19.664 21 19 19.884 19 18.136c0-1.747.722-3.224 2.165-4.364 1.482-1.178 3.286-1.766 5.414-1.766 1.405 0 2.849.033 4.33.717z"/></g><defs><clipPath id="clip0"><path fill="#fff" d="M0 0h93v24.093H0z"/></clipPath></defs></svg>