<svg width="97" height="25" viewBox="0 0 97 25" fill="none" xmlns="http://www.w3.org/2000/svg"><g clip-path="url(#clip0)" fill="#FFBCA2"><path d="M.066 0h2.677v9.557c1.586-1.381 3.47-2.071 5.65-2.071 2.419 0 4.46.848 6.126 2.544 1.705 1.696 2.557 3.767 2.557 6.213 0 2.445-.852 4.516-2.557 6.213C12.854 24.152 10.812 25 8.393 25c-2.18 0-4.064-.69-5.65-2.071v2.07H.066V0zm2.677 18.314a6.28 6.28 0 002.141 2.899c1.03.75 2.2 1.124 3.51 1.124 1.664 0 3.072-.591 4.222-1.775 1.19-1.223 1.784-2.663 1.784-4.32 0-1.656-.595-3.076-1.784-4.26-1.15-1.222-2.558-1.834-4.223-1.834-1.308 0-2.478.375-3.509 1.125a6.28 6.28 0 00-2.141 2.899c-.436 1.183-.436 2.958 0 4.142zM72.199 0v25h-2.677v-2.071c-1.586 1.38-3.469 2.07-5.65 2.07-2.419 0-4.48-.847-6.186-2.543-1.665-1.697-2.498-3.767-2.498-6.213s.833-4.517 2.498-6.213c1.706-1.696 3.767-2.544 6.186-2.544 2.181 0 4.064.69 5.65 2.07V0H72.2zm-2.677 14.172a6.139 6.139 0 00-2.2-2.9c-.992-.749-2.142-1.124-3.45-1.124-1.665 0-3.093.612-4.282 1.835-1.15 1.183-1.725 2.603-1.725 4.26 0 1.657.575 3.096 1.725 4.32 1.19 1.183 2.617 1.774 4.282 1.774 1.308 0 2.458-.375 3.45-1.124a6.14 6.14 0 002.2-2.9c.436-1.183.436-2.958 0-4.141zm7.554 8.284c-1.666-1.697-2.499-3.767-2.499-6.213s.833-4.517 2.499-6.213c1.705-1.696 3.766-2.544 6.185-2.544 2.419 0 4.46.848 6.126 2.544 1.705 1.696 2.557 3.767 2.557 6.213s-.852 4.517-2.557 6.213C87.722 24.152 85.68 25 83.261 25c-2.419 0-4.48-.848-6.185-2.544zm1.903-10.473c-1.15 1.183-1.725 2.603-1.725 4.26 0 1.657.575 3.096 1.725 4.32 1.19 1.183 2.617 1.774 4.282 1.774s3.073-.591 4.223-1.775c1.19-1.223 1.784-2.662 1.784-4.32 0-1.656-.594-3.076-1.784-4.26-1.15-1.222-2.558-1.834-4.223-1.834s-3.093.612-4.282 1.835zM94.324.267H97v24.76h-2.676V.267zM77.802 4.278l4.8-2.833a1.292 1.292 0 011.313 0l4.801 2.833v2.564l-4.8-2.836a1.292 1.292 0 00-1.314 0l-4.8 2.836V4.278zM45.063 7.695c2.34 0 4.223.828 5.65 2.485 1.428 1.617 2.142 3.668 2.142 6.154v9.227L50.178 25v-8.668c0-1.696-.456-3.116-1.368-4.26-.872-1.144-2.121-1.716-3.747-1.716s-2.875.572-3.747 1.716c-.912 1.144-1.368 2.564-1.368 4.26V25h-2.676V7.813h2.676v1.805c1.352-1.282 3.057-1.923 5.115-1.923zM32.536 20.473v-3.725c-1.228-1.143-2.833-1.394-4.814-1.394-1.466 0-2.714.374-3.744 1.123-.99.71-1.486 1.592-1.486 2.577 0 .986.436 1.494 1.307 2.164.912.63 2.08.946 3.507.946.872 0 1.788-.118 2.866-.481.97-.327 1.85-.658 2.364-1.21zm-.297-7.036c-.634-2.05-2.002-3.61-4.26-3.61-2.22 0-4.003.993-5.35 1.979L21.5 9c2.1-1.143 4.26-1.715 6.478-1.715 2.378 0 4.18.71 5.409 2.129 1.268 1.38 1.824 3.486 1.824 5.89v9.615h-2.675V23.5c-1.822.946-3.566 1.419-5.23 1.419-2.18 0-3.982-.552-5.408-1.655-1.387-1.144-2.08-2.396-2.08-4.21 0-1.813.752-3.346 2.258-4.528 1.545-1.222 3.427-1.833 5.646-1.833 1.466 0 2.972.035 4.517.744z"/></g><defs><clipPath id="clip0"><path fill="#fff" d="M0 0h97v25H0z"/></clipPath></defs></svg>